<svg width="189" height="33" viewBox="0 0 189 33" fill="none" xmlns="http://www.w3.org/2000/svg">
<path d="M8 25C12.4183 25 16 21.4183 16 17C16 12.5817 12.4183 9 8 9C3.58172 9 0 12.5817 0 17C0 21.4183 3.58172 25 8 25Z" fill="#CAF0F8"/>
<path d="M31 25C35.4183 25 39 21.4183 39 17C39 12.5817 35.4183 9 31 9C26.5817 9 23 12.5817 23 17C23 21.4183 26.5817 25 31 25Z" fill="#8ECAE6"/>
<path d="M54 25C58.4183 25 62 21.4183 62 17C62 12.5817 58.4183 9 54 9C49.5817 9 46 12.5817 46 17C46 21.4183 49.5817 25 54 25Z" fill="#219EBC"/>
<path d="M78.496 25V9.18201H83.358L86.196 21.656L89.078 9.18201H93.852V25H90.75V11.756L90.706 11.8L87.78 25H84.524L81.642 11.756L81.598 11.8V25H78.496ZM106.415 13.274V25H103.489V23.372C103.049 24.0173 102.535 24.5013 101.949 24.824C101.362 25.1467 100.673 25.308 99.8807 25.308C98.678 25.308 97.71 24.9413 96.9767 24.208C96.2434 23.4747 95.8767 22.404 95.8767 20.996V13.274H98.9787V20.534C98.9787 21.986 99.6387 22.712 100.959 22.712C101.311 22.712 101.685 22.624 102.081 22.448C102.462 22.2867 102.77 22.0007 103.005 21.59C103.239 21.2087 103.357 20.6953 103.357 20.05V13.274H106.415ZM107.764 19.456C107.764 17.74 108.175 16.2293 108.996 14.924C109.817 13.6187 111.211 12.966 113.176 12.966C114.129 12.966 115.002 13.1273 115.794 13.45C116.571 13.7727 117.209 14.286 117.708 14.99C118.265 15.7527 118.544 16.5813 118.544 17.476H115.42C115.347 16.948 115.149 16.5007 114.826 16.134C114.503 15.7673 114.027 15.584 113.396 15.584C112.619 15.584 112.01 15.8847 111.57 16.486C111.13 17.0727 110.91 17.894 110.91 18.95C110.91 19.8447 110.983 20.5413 111.13 21.04C111.262 21.5973 111.511 22.0153 111.878 22.294C112.23 22.602 112.692 22.756 113.264 22.756C113.792 22.756 114.261 22.58 114.672 22.228C115.083 21.8907 115.317 21.3993 115.376 20.754H118.5C118.397 21.6193 118.141 22.3893 117.73 23.064C117.319 23.724 116.733 24.2593 115.97 24.67C115.193 25.0953 114.276 25.308 113.22 25.308C111.665 25.308 110.375 24.8607 109.348 23.966C108.82 23.5113 108.424 22.91 108.16 22.162C107.896 21.4287 107.764 20.5267 107.764 19.456ZM119.768 25V9.18201H122.87V14.814C123.149 14.2713 123.589 13.824 124.19 13.472C124.85 13.1347 125.554 12.966 126.302 12.966C127.123 12.966 127.849 13.12 128.48 13.428C129.125 13.7653 129.602 14.22 129.91 14.792C130.233 15.3787 130.394 16.0753 130.394 16.882V25H127.292V17.916C127.292 17.1387 127.16 16.552 126.896 16.156C126.632 15.7747 126.089 15.584 125.268 15.584C124.828 15.584 124.417 15.6867 124.036 15.892C123.655 16.112 123.369 16.4273 123.178 16.838C122.973 17.278 122.87 17.762 122.87 18.29V25H119.768ZM132.733 22.602V15.496H131.149V13.274H132.733V10.128H135.835V13.274H137.727V15.496H135.835V21.854C135.835 22.25 135.901 22.5067 136.033 22.624C136.18 22.7413 136.525 22.8 137.067 22.8L137.419 22.778L137.727 22.756V25.088L137.023 25.11L136.297 25.132H135.879C135.058 25.132 134.405 25.0293 133.921 24.824C133.437 24.6187 133.122 24.3327 132.975 23.966C132.814 23.57 132.733 23.1153 132.733 22.602ZM137.992 21.942C137.992 20.7687 138.315 19.8813 138.96 19.28C139.605 18.6787 140.419 18.3047 141.402 18.158L144.24 17.74C144.915 17.6373 145.252 17.3513 145.252 16.882C145.252 15.9287 144.636 15.452 143.404 15.452C142.788 15.452 142.304 15.562 141.952 15.782C141.629 16.0167 141.431 16.4567 141.358 17.102H138.388C138.476 16.1487 138.711 15.3713 139.092 14.77C139.488 14.154 140.031 13.7067 140.72 13.428C141.043 13.296 141.446 13.186 141.93 13.098C142.399 13.01 142.891 12.966 143.404 12.966C144.812 12.966 145.875 13.164 146.594 13.56C147.327 13.9707 147.789 14.4327 147.98 14.946C148.171 15.43 148.266 15.8993 148.266 16.354V22.712C148.266 23.2253 148.31 23.636 148.398 23.944C148.486 24.252 148.669 24.45 148.948 24.538V25H145.648C145.633 24.9267 145.604 24.8313 145.56 24.714C145.516 24.5673 145.487 24.472 145.472 24.428C145.384 24.0907 145.34 23.8193 145.34 23.614C145.017 23.966 144.68 24.2593 144.328 24.494C143.961 24.7287 143.565 24.9267 143.14 25.088C142.715 25.2347 142.231 25.308 141.688 25.308C141.116 25.308 140.544 25.2053 139.972 25C139.429 24.8093 138.967 24.4427 138.586 23.9C138.19 23.3867 137.992 22.734 137.992 21.942ZM145.252 19.28C144.988 19.5 144.614 19.6613 144.13 19.764L142.656 20.072C142.201 20.1747 141.827 20.3507 141.534 20.6C141.241 20.864 141.094 21.26 141.094 21.788C141.094 22.2133 141.233 22.536 141.512 22.756C141.791 22.9907 142.15 23.108 142.59 23.108C142.81 23.108 142.993 23.086 143.14 23.042C143.301 23.0127 143.514 22.9467 143.778 22.844C144.174 22.6827 144.519 22.4333 144.812 22.096C145.105 21.7293 145.252 21.2967 145.252 20.798V19.28ZM150.216 25V9.18201H153.318V25H150.216ZM154.448 18.906C154.448 17.894 154.638 16.926 155.02 16.002C155.401 15.078 156.017 14.3447 156.868 13.802C157.733 13.2447 158.804 12.966 160.08 12.966C161.429 12.966 162.507 13.2593 163.314 13.846C164.12 14.4327 164.7 15.2173 165.052 16.2C165.404 17.1827 165.58 18.2533 165.58 19.412V19.962H157.506C157.506 20.9007 157.755 21.612 158.254 22.096C158.738 22.5947 159.42 22.844 160.3 22.844C160.754 22.844 161.172 22.7193 161.554 22.47C161.935 22.2207 162.177 21.92 162.28 21.568H165.448C165.198 22.3893 164.832 23.064 164.348 23.592C163.849 24.1493 163.255 24.5747 162.566 24.868C161.847 25.1613 161.092 25.308 160.3 25.308C156.398 25.308 154.448 23.174 154.448 18.906ZM157.638 18.004H162.412C162.353 17.256 162.104 16.64 161.664 16.156C161.224 15.716 160.681 15.496 160.036 15.496C158.657 15.496 157.858 16.332 157.638 18.004ZM166.716 25V13.274H169.686V14.99C170.478 13.6407 171.666 12.966 173.25 12.966C174.086 12.966 174.819 13.12 175.45 13.428C176.066 13.7507 176.535 14.198 176.858 14.77C177.18 15.3567 177.342 16.0607 177.342 16.882V25H174.24V17.916C174.24 17.1827 174.122 16.6107 173.888 16.2C173.653 15.7893 173.096 15.584 172.216 15.584C171.38 15.584 170.771 15.848 170.39 16.376C170.008 16.9187 169.818 17.5567 169.818 18.29V25H166.716ZM179.681 22.602V15.496H178.097V13.274H179.681V10.128H182.783V13.274H184.675V15.496H182.783V21.854C182.783 22.25 182.849 22.5067 182.981 22.624C183.128 22.7413 183.472 22.8 184.015 22.8L184.367 22.778L184.675 22.756V25.088L183.971 25.11L183.245 25.132H182.827C182.006 25.132 181.353 25.0293 180.869 24.824C180.385 24.6187 180.07 24.3327 179.923 23.966C179.762 23.57 179.681 23.1153 179.681 22.602Z" fill="#5A5A5A"/>
</svg>
